<?xml version="1.0" encoding="UTF-8" standalone="no"?>
<!DOCTYPE svg PUBLIC "-//W3C//DTD SVG 1.1//EN"
 "http://www.w3.org/Graphics/SVG/1.1/DTD/svg11.dtd">
<!-- Generated by graphviz version 14.1.4 (20260321.0153)
 -->
<!-- Title: DiagrammeER Pages: 1 -->
<svg width="1632pt" height="582pt"
 viewBox="0.00 0.00 1632.00 582.00" xmlns="http://www.w3.org/2000/svg" xmlns:xlink="http://www.w3.org/1999/xlink">
<g id="graph0" class="graph" transform="scale(1 1) rotate(0) translate(4 577.62)">
<title>DiagrammeER</title>
<polygon fill="white" stroke="none" points="-4,4 -4,-577.62 1628.25,-577.62 1628.25,4 -4,4"/>
<text xml:space="preserve" text-anchor="middle" x="812.12" y="-550.62" font-family="Helvetica,sans-Serif" font-size="20.00">Plateforme de resumes de cours &#45; Modele ER</text>
<!-- Utilisateur -->
<g id="node1" class="node">
<title>Utilisateur</title>
<path fill="#e8f0fe" stroke="#4a90e2" d="M396.38,-167.62C396.38,-167.62 561.12,-167.62 561.12,-167.62 567.12,-167.62 573.12,-173.62 573.12,-179.62 573.12,-179.62 573.12,-242.38 573.12,-242.38 573.12,-248.38 567.12,-254.38 561.12,-254.38 561.12,-254.38 396.38,-254.38 396.38,-254.38 390.38,-254.38 384.38,-248.38 384.38,-242.38 384.38,-242.38 384.38,-179.62 384.38,-179.62 384.38,-173.62 390.38,-167.62 396.38,-167.62"/>
<text xml:space="preserve" text-anchor="middle" x="414.5" y="-207.12" font-family="Helvetica,sans-Serif" font-size="10.00">Utilisateur</text>
<polyline fill="none" stroke="#4a90e2" points="444.62,-167.62 444.62,-254.38"/>
<text xml:space="preserve" text-anchor="start" x="452.62" y="-240.88" font-family="Helvetica,sans-Serif" font-size="10.00">PK idUtilisateur</text>
<text xml:space="preserve" text-anchor="start" x="452.62" y="-229.62" font-family="Helvetica,sans-Serif" font-size="10.00">nomUtilisateur</text>
<text xml:space="preserve" text-anchor="start" x="452.62" y="-218.38" font-family="Helvetica,sans-Serif" font-size="10.00">email (UQ)</text>
<text xml:space="preserve" text-anchor="start" x="452.62" y="-207.12" font-family="Helvetica,sans-Serif" font-size="10.00">dateInscription</text>
<text xml:space="preserve" text-anchor="start" x="452.62" y="-195.88" font-family="Helvetica,sans-Serif" font-size="10.00">nbPoints</text>
<text xml:space="preserve" text-anchor="start" x="452.62" y="-184.62" font-family="Helvetica,sans-Serif" font-size="10.00">niveau (derive)</text>
<text xml:space="preserve" text-anchor="start" x="452.62" y="-173.38" font-family="Helvetica,sans-Serif" font-size="10.00">titreActif (derive/coherent)</text>
</g>
<!-- Resume -->
<g id="node5" class="node">
<title>Resume</title>
<path fill="#e8f0fe" stroke="#4a90e2" d="M766,-351.62C766,-351.62 909.75,-351.62 909.75,-351.62 915.75,-351.62 921.75,-357.62 921.75,-363.62 921.75,-363.62 921.75,-426.38 921.75,-426.38 921.75,-432.38 915.75,-438.38 909.75,-438.38 909.75,-438.38 766,-438.38 766,-438.38 760,-438.38 754,-432.38 754,-426.38 754,-426.38 754,-363.62 754,-363.62 754,-357.62 760,-351.62 766,-351.62"/>
<text xml:space="preserve" text-anchor="middle" x="780.38" y="-391.12" font-family="Helvetica,sans-Serif" font-size="10.00">Resume</text>
<polyline fill="none" stroke="#4a90e2" points="806.75,-351.62 806.75,-438.38"/>
<text xml:space="preserve" text-anchor="start" x="814.75" y="-424.88" font-family="Helvetica,sans-Serif" font-size="10.00">PK idResume</text>
<text xml:space="preserve" text-anchor="start" x="814.75" y="-413.62" font-family="Helvetica,sans-Serif" font-size="10.00">titre</text>
<text xml:space="preserve" text-anchor="start" x="814.75" y="-402.38" font-family="Helvetica,sans-Serif" font-size="10.00">description</text>
<text xml:space="preserve" text-anchor="start" x="814.75" y="-391.12" font-family="Helvetica,sans-Serif" font-size="10.00">datePublication</text>
<text xml:space="preserve" text-anchor="start" x="814.75" y="-379.88" font-family="Helvetica,sans-Serif" font-size="10.00">version</text>
<text xml:space="preserve" text-anchor="start" x="814.75" y="-368.62" font-family="Helvetica,sans-Serif" font-size="10.00">visibilite</text>
<text xml:space="preserve" text-anchor="start" x="814.75" y="-357.38" font-family="Helvetica,sans-Serif" font-size="10.00">noteMoyenne (derivee)</text>
</g>
<!-- Utilisateur&#45;&gt;Resume -->
<g id="edge3" class="edge">
<title>Utilisateur&#45;&gt;Resume</title>
<path fill="none" stroke="#555555" d="M564.84,-254.84C619.19,-282.85 689.65,-319.14 745.23,-347.78"/>
<polygon fill="#555555" stroke="#555555" points="743.93,-350.26 752.33,-351.44 746.5,-345.29 743.93,-350.26"/>
<text xml:space="preserve" text-anchor="middle" x="666.75" y="-320.68" font-family="Helvetica,sans-Serif" font-size="9.00">publie</text>
<text xml:space="preserve" text-anchor="middle" x="735.69" y="-347.75" font-family="Helvetica,sans-Serif" font-size="9.00">(1,1)</text>
<text xml:space="preserve" text-anchor="middle" x="582.82" y="-251.87" font-family="Helvetica,sans-Serif" font-size="9.00">(0,n)</text>
</g>
<!-- Evaluation -->
<g id="node6" class="node">
<title>Evaluation</title>
<path fill="#e8f0fe" stroke="#4a90e2" d="M1101.5,-268.88C1101.5,-268.88 1241.5,-268.88 1241.5,-268.88 1247.5,-268.88 1253.5,-274.88 1253.5,-280.88 1253.5,-280.88 1253.5,-321.12 1253.5,-321.12 1253.5,-327.12 1247.5,-333.12 1241.5,-333.12 1241.5,-333.12 1101.5,-333.12 1101.5,-333.12 1095.5,-333.12 1089.5,-327.12 1089.5,-321.12 1089.5,-321.12 1089.5,-280.88 1089.5,-280.88 1089.5,-274.88 1095.5,-268.88 1101.5,-268.88"/>
<text xml:space="preserve" text-anchor="middle" x="1120.38" y="-297.12" font-family="Helvetica,sans-Serif" font-size="10.00">Evaluation</text>
<polyline fill="none" stroke="#4a90e2" points="1151.25,-268.88 1151.25,-333.12"/>
<text xml:space="preserve" text-anchor="start" x="1159.25" y="-319.62" font-family="Helvetica,sans-Serif" font-size="10.00">PK,FK idEvaluateur</text>
<text xml:space="preserve" text-anchor="start" x="1159.25" y="-308.38" font-family="Helvetica,sans-Serif" font-size="10.00">PK,FK idResume</text>
<text xml:space="preserve" text-anchor="start" x="1159.25" y="-297.12" font-family="Helvetica,sans-Serif" font-size="10.00">note</text>
<text xml:space="preserve" text-anchor="start" x="1159.25" y="-285.88" font-family="Helvetica,sans-Serif" font-size="10.00">commentaire</text>
<text xml:space="preserve" text-anchor="start" x="1159.25" y="-274.62" font-family="Helvetica,sans-Serif" font-size="10.00">dateEvaluation</text>
</g>
<!-- Utilisateur&#45;&gt;Evaluation -->
<g id="edge5" class="edge">
<title>Utilisateur&#45;&gt;Evaluation</title>
<path fill="none" stroke="#555555" d="M570.13,-254.81C591.29,-263.3 614.07,-271.08 636,-276 789.04,-310.3 972.69,-310.23 1080.02,-306.21"/>
<polygon fill="#555555" stroke="#555555" points="1079.81,-309.02 1087.69,-305.91 1079.59,-303.42 1079.81,-309.02"/>
<text xml:space="preserve" text-anchor="middle" x="837.88" y="-308.8" font-family="Helvetica,sans-Serif" font-size="9.00">effectue</text>
<text xml:space="preserve" text-anchor="middle" x="1073.2" y="-310.41" font-family="Helvetica,sans-Serif" font-size="9.00">(1,1)</text>
<text xml:space="preserve" text-anchor="middle" x="588.1" y="-250.05" font-family="Helvetica,sans-Serif" font-size="9.00">(0,n)</text>
</g>
<!-- TransactionPoints -->
<g id="node7" class="node">
<title>TransactionPoints</title>
<path fill="#e8f0fe" stroke="#4a90e2" d="M1389,-347.25C1389,-347.25 1612.25,-347.25 1612.25,-347.25 1618.25,-347.25 1624.25,-353.25 1624.25,-359.25 1624.25,-359.25 1624.25,-410.75 1624.25,-410.75 1624.25,-416.75 1618.25,-422.75 1612.25,-422.75 1612.25,-422.75 1389,-422.75 1389,-422.75 1383,-422.75 1377,-416.75 1377,-410.75 1377,-410.75 1377,-359.25 1377,-359.25 1377,-353.25 1383,-347.25 1389,-347.25"/>
<text xml:space="preserve" text-anchor="middle" x="1424.38" y="-381.12" font-family="Helvetica,sans-Serif" font-size="10.00">TransactionPoints</text>
<polyline fill="none" stroke="#4a90e2" points="1471.75,-347.25 1471.75,-422.75"/>
<text xml:space="preserve" text-anchor="start" x="1479.75" y="-409.25" font-family="Helvetica,sans-Serif" font-size="10.00">PK idTransaction</text>
<text xml:space="preserve" text-anchor="start" x="1479.75" y="-398" font-family="Helvetica,sans-Serif" font-size="10.00">FK idUtilisateur</text>
<text xml:space="preserve" text-anchor="start" x="1479.75" y="-386.75" font-family="Helvetica,sans-Serif" font-size="10.00">typeTransaction (gain/depense)</text>
<text xml:space="preserve" text-anchor="start" x="1479.75" y="-375.5" font-family="Helvetica,sans-Serif" font-size="10.00">nbPoints</text>
<text xml:space="preserve" text-anchor="start" x="1479.75" y="-364.25" font-family="Helvetica,sans-Serif" font-size="10.00">dateTransaction</text>
<text xml:space="preserve" text-anchor="start" x="1479.75" y="-353" font-family="Helvetica,sans-Serif" font-size="10.00">motif</text>
</g>
<!-- Utilisateur&#45;&gt;TransactionPoints -->
<g id="edge7" class="edge">
<title>Utilisateur&#45;&gt;TransactionPoints</title>
<path fill="none" stroke="#555555" d="M573.5,-192.29C620.69,-183.66 678.91,-174.19 731.5,-169 962.39,-146.22 1023.92,-139.51 1253.5,-173 1293.93,-178.9 1308.32,-172.39 1343,-194 1400.91,-230.08 1447.33,-295.08 1474.18,-339.13"/>
<polygon fill="#555555" stroke="#555555" points="1471.67,-340.38 1478.19,-345.8 1476.47,-337.5 1471.67,-340.38"/>
<text xml:space="preserve" text-anchor="middle" x="1016.88" y="-152.5" font-family="Helvetica,sans-Serif" font-size="9.00">possedeHistorique</text>
<text xml:space="preserve" text-anchor="middle" x="1462.39" y="-332.23" font-family="Helvetica,sans-Serif" font-size="9.00">(1,1)</text>
<text xml:space="preserve" text-anchor="middle" x="589.83" y="-177.08" font-family="Helvetica,sans-Serif" font-size="9.00">(0,n)</text>
</g>
<!-- PossessionObjet -->
<g id="node9" class="node">
<title>PossessionObjet</title>
<path fill="#e8f0fe" stroke="#4a90e2" d="M754.75,-479.88C754.75,-479.88 921,-479.88 921,-479.88 927,-479.88 933,-485.88 933,-491.88 933,-491.88 933,-532.12 933,-532.12 933,-538.12 927,-544.12 921,-544.12 921,-544.12 754.75,-544.12 754.75,-544.12 748.75,-544.12 742.75,-538.12 742.75,-532.12 742.75,-532.12 742.75,-491.88 742.75,-491.88 742.75,-485.88 748.75,-479.88 754.75,-479.88"/>
<text xml:space="preserve" text-anchor="middle" x="787.88" y="-508.12" font-family="Helvetica,sans-Serif" font-size="10.00">PossessionObjet</text>
<polyline fill="none" stroke="#4a90e2" points="833,-479.88 833,-544.12"/>
<text xml:space="preserve" text-anchor="start" x="841" y="-530.62" font-family="Helvetica,sans-Serif" font-size="10.00">PK,FK idUtilisateur</text>
<text xml:space="preserve" text-anchor="start" x="841" y="-519.38" font-family="Helvetica,sans-Serif" font-size="10.00">PK,FK idObjet</text>
<text xml:space="preserve" text-anchor="start" x="841" y="-508.12" font-family="Helvetica,sans-Serif" font-size="10.00">dateAchat</text>
<text xml:space="preserve" text-anchor="start" x="841" y="-496.88" font-family="Helvetica,sans-Serif" font-size="10.00">estActif</text>
<text xml:space="preserve" text-anchor="start" x="841" y="-485.62" font-family="Helvetica,sans-Serif" font-size="10.00">dateActivation</text>
</g>
<!-- Utilisateur&#45;&gt;PossessionObjet -->
<g id="edge11" class="edge">
<title>Utilisateur&#45;&gt;PossessionObjet</title>
<path fill="none" stroke="#555555" d="M518.29,-254.64C543.07,-283.34 575.47,-322.1 602,-358 618.41,-380.21 615.48,-391.53 636,-410 666.21,-437.19 704.99,-459.12 740.41,-475.57"/>
<polygon fill="#555555" stroke="#555555" points="739.04,-478.02 747.48,-478.79 741.36,-472.92 739.04,-478.02"/>
<text xml:space="preserve" text-anchor="middle" x="666.75" y="-453.86" font-family="Helvetica,sans-Serif" font-size="9.00">possede</text>
<text xml:space="preserve" text-anchor="middle" x="730.86" y="-475.9" font-family="Helvetica,sans-Serif" font-size="9.00">(1,1)</text>
<text xml:space="preserve" text-anchor="middle" x="534.7" y="-258.38" font-family="Helvetica,sans-Serif" font-size="9.00">(0,n)</text>
</g>
<!-- HistoriqueClassement -->
<g id="node11" class="node">
<title>HistoriqueClassement</title>
<path fill="#e8f0fe" stroke="#4a90e2" d="M743.5,-2.5C743.5,-2.5 932.25,-2.5 932.25,-2.5 938.25,-2.5 944.25,-8.5 944.25,-14.5 944.25,-14.5 944.25,-43.5 944.25,-43.5 944.25,-49.5 938.25,-55.5 932.25,-55.5 932.25,-55.5 743.5,-55.5 743.5,-55.5 737.5,-55.5 731.5,-49.5 731.5,-43.5 731.5,-43.5 731.5,-14.5 731.5,-14.5 731.5,-8.5 737.5,-2.5 743.5,-2.5"/>
<text xml:space="preserve" text-anchor="middle" x="787.88" y="-25.12" font-family="Helvetica,sans-Serif" font-size="10.00">HistoriqueClassement</text>
<polyline fill="none" stroke="#4a90e2" points="844.25,-2.5 844.25,-55.5"/>
<text xml:space="preserve" text-anchor="start" x="852.25" y="-42" font-family="Helvetica,sans-Serif" font-size="10.00">PK,FK idUtilisateur</text>
<text xml:space="preserve" text-anchor="start" x="852.25" y="-30.75" font-family="Helvetica,sans-Serif" font-size="10.00">PK,FK idPeriode</text>
<text xml:space="preserve" text-anchor="start" x="852.25" y="-19.5" font-family="Helvetica,sans-Serif" font-size="10.00">rang</text>
<text xml:space="preserve" text-anchor="start" x="852.25" y="-8.25" font-family="Helvetica,sans-Serif" font-size="10.00">pointsConstates</text>
</g>
<!-- Utilisateur&#45;&gt;HistoriqueClassement -->
<g id="edge14" class="edge">
<title>Utilisateur&#45;&gt;HistoriqueClassement</title>
<path fill="none" stroke="#555555" d="M522.2,-167.35C551.73,-139.31 593.31,-104.16 636,-82.25 662.62,-68.59 693.07,-58.19 722.07,-50.38"/>
<polygon fill="#555555" stroke="#555555" points="722.53,-53.15 729.56,-48.42 721.11,-47.73 722.53,-53.15"/>
<text xml:space="preserve" text-anchor="middle" x="666.75" y="-83.45" font-family="Helvetica,sans-Serif" font-size="9.00">figureDans</text>
<text xml:space="preserve" text-anchor="middle" x="717.17" y="-55.85" font-family="Helvetica,sans-Serif" font-size="9.00">(1,1)</text>
<text xml:space="preserve" text-anchor="middle" x="528.93" y="-146.98" font-family="Helvetica,sans-Serif" font-size="9.00">(0,n)</text>
</g>
<!-- Cours -->
<g id="node2" class="node">
<title>Cours</title>
<path fill="#e8f0fe" stroke="#4a90e2" d="M75.62,-415.12C75.62,-415.12 173.62,-415.12 173.62,-415.12 179.62,-415.12 185.62,-421.12 185.62,-427.12 185.62,-427.12 185.62,-444.88 185.62,-444.88 185.62,-450.88 179.62,-456.88 173.62,-456.88 173.62,-456.88 75.62,-456.88 75.62,-456.88 69.62,-456.88 63.62,-450.88 63.62,-444.88 63.62,-444.88 63.62,-427.12 63.62,-427.12 63.62,-421.12 69.62,-415.12 75.62,-415.12"/>
<text xml:space="preserve" text-anchor="middle" x="84.75" y="-432.12" font-family="Helvetica,sans-Serif" font-size="10.00">Cours</text>
<polyline fill="none" stroke="#4a90e2" points="105.88,-415.12 105.88,-456.88"/>
<text xml:space="preserve" text-anchor="start" x="113.88" y="-443.38" font-family="Helvetica,sans-Serif" font-size="10.00">PK codeCours</text>
<text xml:space="preserve" text-anchor="start" x="113.88" y="-432.12" font-family="Helvetica,sans-Serif" font-size="10.00">nomCours</text>
<text xml:space="preserve" text-anchor="start" x="113.88" y="-420.88" font-family="Helvetica,sans-Serif" font-size="10.00">faculte</text>
</g>
<!-- EditionCours -->
<g id="node4" class="node">
<title>EditionCours</title>
<path fill="#e8f0fe" stroke="#4a90e2" d="M404.25,-378C404.25,-378 553.25,-378 553.25,-378 559.25,-378 565.25,-384 565.25,-390 565.25,-390 565.25,-402 565.25,-402 565.25,-408 559.25,-414 553.25,-414 553.25,-414 404.25,-414 404.25,-414 398.25,-414 392.25,-408 392.25,-402 392.25,-402 392.25,-390 392.25,-390 392.25,-384 398.25,-378 404.25,-378"/>
<text xml:space="preserve" text-anchor="middle" x="428.38" y="-392.38" font-family="Helvetica,sans-Serif" font-size="10.00">EditionCours</text>
<polyline fill="none" stroke="#4a90e2" points="464.5,-378.5 464.5,-414"/>
<text xml:space="preserve" text-anchor="start" x="472.5" y="-398" font-family="Helvetica,sans-Serif" font-size="10.00">PK,FK codeCours</text>
<text xml:space="preserve" text-anchor="start" x="472.5" y="-386.75" font-family="Helvetica,sans-Serif" font-size="10.00">PK,FK libelleAnnee</text>
</g>
<!-- Cours&#45;&gt;EditionCours -->
<g id="edge1" class="edge">
<title>Cours&#45;&gt;EditionCours</title>
<path fill="none" stroke="#555555" d="M185.76,-429.17C239.77,-423.03 319.99,-413.92 382.68,-406.8"/>
<polygon fill="#555555" stroke="#555555" points="382.67,-409.62 390.3,-405.93 382.03,-404.06 382.67,-409.62"/>
<text xml:space="preserve" text-anchor="middle" x="302.38" y="-418.4" font-family="Helvetica,sans-Serif" font-size="9.00">concerne</text>
<text xml:space="preserve" text-anchor="middle" x="378.16" y="-410.44" font-family="Helvetica,sans-Serif" font-size="9.00">(1,1)</text>
<text xml:space="preserve" text-anchor="middle" x="199.4" y="-417.14" font-family="Helvetica,sans-Serif" font-size="9.00">(1,n)</text>
</g>
<!-- AnneeAcademique -->
<g id="node3" class="node">
<title>AnneeAcademique</title>
<path fill="#e8f0fe" stroke="#4a90e2" d="M45.25,-338C45.25,-338 204,-338 204,-338 210,-338 216,-344 216,-350 216,-350 216,-362 216,-362 216,-368 210,-374 204,-374 204,-374 45.25,-374 45.25,-374 39.25,-374 33.25,-368 33.25,-362 33.25,-362 33.25,-350 33.25,-350 33.25,-344 39.25,-338 45.25,-338"/>
<text xml:space="preserve" text-anchor="middle" x="82.12" y="-352.5" font-family="Helvetica,sans-Serif" font-size="10.00">AnneeAcademique</text>
<polyline fill="none" stroke="#4a90e2" points="131,-338.75 131,-374"/>
<text xml:space="preserve" text-anchor="start" x="139" y="-352.5" font-family="Helvetica,sans-Serif" font-size="10.00">PK libelleAnnee</text>
</g>
<!-- AnneeAcademique&#45;&gt;EditionCours -->
<g id="edge2" class="edge">
<title>AnneeAcademique&#45;&gt;EditionCours</title>
<path fill="none" stroke="#555555" d="M216.31,-366.3C267.34,-372.1 331.01,-379.33 382.74,-385.21"/>
<polygon fill="#555555" stroke="#555555" points="382.15,-387.96 390.42,-386.08 382.79,-382.39 382.15,-387.96"/>
<text xml:space="preserve" text-anchor="middle" x="302.38" y="-378.4" font-family="Helvetica,sans-Serif" font-size="9.00">situe</text>
<text xml:space="preserve" text-anchor="middle" x="376.75" y="-387.66" font-family="Helvetica,sans-Serif" font-size="9.00">(1,1)</text>
<text xml:space="preserve" text-anchor="middle" x="231.48" y="-357.54" font-family="Helvetica,sans-Serif" font-size="9.00">(1,n)</text>
</g>
<!-- EditionCours&#45;&gt;Resume -->
<g id="edge4" class="edge">
<title>EditionCours&#45;&gt;Resume</title>
<path fill="none" stroke="#555555" d="M565.71,-395.53C588.56,-395.42 613.21,-395.32 636,-395.25 671.38,-395.14 710.27,-395.08 744.33,-395.05"/>
<polygon fill="#555555" stroke="#555555" points="744.29,-397.85 752.29,-395.04 744.29,-392.25 744.29,-397.85"/>
<text xml:space="preserve" text-anchor="middle" x="666.75" y="-396.45" font-family="Helvetica,sans-Serif" font-size="9.00">regroupe</text>
<text xml:space="preserve" text-anchor="middle" x="737.5" y="-398.99" font-family="Helvetica,sans-Serif" font-size="9.00">(1,1)</text>
<text xml:space="preserve" text-anchor="middle" x="581.99" y="-384.17" font-family="Helvetica,sans-Serif" font-size="9.00">(0,n)</text>
</g>
<!-- Hypotheses -->
<g id="node13" class="node">
<title>Hypotheses</title>
<polygon fill="#f3e5f5" stroke="#8e44ad" points="243.25,-297.5 0,-297.5 0,-244.5 249.25,-244.5 249.25,-291.5 243.25,-297.5"/>
<polyline fill="none" stroke="#8e44ad" points="243.25,-297.5 243.25,-291.5"/>
<polyline fill="none" stroke="#8e44ad" points="249.25,-291.5 243.25,-291.5"/>
<text xml:space="preserve" text-anchor="start" x="8" y="-284" font-family="Helvetica,sans-Serif" font-size="10.00">Hypotheses de modelisation:</text>
<text xml:space="preserve" text-anchor="start" x="8" y="-272.75" font-family="Helvetica,sans-Serif" font-size="10.00">&#45; EditionCours pour lier Cours et AnneeAcademique</text>
<text xml:space="preserve" text-anchor="start" x="8" y="-261.5" font-family="Helvetica,sans-Serif" font-size="10.00">&#45; idResume, idTransaction, idPeriode sont techniques</text>
<text xml:space="preserve" text-anchor="start" x="8" y="-250.25" font-family="Helvetica,sans-Serif" font-size="10.00">&#45; Une possession suppose points suffisants a l&#39;achat</text>
</g>
<!-- EditionCours&#45;&gt;Hypotheses -->
<g id="edge16" class="edge">
<title>EditionCours&#45;&gt;Hypotheses</title>
<path fill="none" stroke="#555555" stroke-dasharray="5,2" d="M425.84,-377.57C366.65,-356.56 269.33,-322.01 201.6,-297.97"/>
</g>
<!-- Resume&#45;&gt;Evaluation -->
<g id="edge6" class="edge">
<title>Resume&#45;&gt;Evaluation</title>
<path fill="none" stroke="#555555" d="M922.13,-371.4C970.27,-357.76 1030.86,-340.58 1080.15,-326.61"/>
<polygon fill="#555555" stroke="#555555" points="1080.83,-329.33 1087.76,-324.45 1079.3,-323.94 1080.83,-329.33"/>
<text xml:space="preserve" text-anchor="middle" x="1016.88" y="-354.83" font-family="Helvetica,sans-Serif" font-size="9.00">recoit</text>
<text xml:space="preserve" text-anchor="middle" x="1075.6" y="-332.13" font-family="Helvetica,sans-Serif" font-size="9.00">(1,1)</text>
<text xml:space="preserve" text-anchor="middle" x="935.75" y="-355.96" font-family="Helvetica,sans-Serif" font-size="9.00">(0,n)</text>
</g>
<!-- Resume&#45;&gt;TransactionPoints -->
<g id="edge8" class="edge">
<title>Resume&#45;&gt;TransactionPoints</title>
<path fill="none" stroke="#555555" d="M922.22,-393.74C1034.2,-392.04 1234.45,-389.01 1367.18,-387"/>
<polygon fill="#555555" stroke="#555555" points="1367.15,-389.81 1375.11,-386.88 1367.06,-384.21 1367.15,-389.81"/>
<text xml:space="preserve" text-anchor="middle" x="1171.5" y="-392.36" font-family="Helvetica,sans-Serif" font-size="9.00">generePublication</text>
<text xml:space="preserve" text-anchor="middle" x="1358.62" y="-391.91" font-family="Helvetica,sans-Serif" font-size="9.00">(0,1)</text>
<text xml:space="preserve" text-anchor="middle" x="940.22" y="-381.34" font-family="Helvetica,sans-Serif" font-size="9.00">(0,1)</text>
</g>
<!-- Evaluation&#45;&gt;TransactionPoints -->
<g id="edge9" class="edge">
<title>Evaluation&#45;&gt;TransactionPoints</title>
<path fill="none" stroke="#555555" d="M1253.78,-321.87C1288.12,-330.69 1328.99,-341.18 1367.46,-351.06"/>
<polygon fill="#555555" stroke="#555555" points="1366.75,-353.77 1375.2,-353.05 1368.14,-348.35 1366.75,-353.77"/>
<text xml:space="preserve" text-anchor="middle" x="1315.25" y="-344.2" font-family="Helvetica,sans-Serif" font-size="9.00">genereBonus</text>
<text xml:space="preserve" text-anchor="middle" x="1357" y="-353.43" font-family="Helvetica,sans-Serif" font-size="9.00">(0,1)</text>
<text xml:space="preserve" text-anchor="middle" x="1273.44" y="-314.52" font-family="Helvetica,sans-Serif" font-size="9.00">(0,1)</text>
</g>
<!-- Contraintes -->
<g id="node12" class="node">
<title>Contraintes</title>
<polygon fill="#fff8e1" stroke="#c9a227" points="238.38,-204.62 4.88,-204.62 4.88,-95.38 244.38,-95.38 244.38,-198.62 238.38,-204.62"/>
<polyline fill="none" stroke="#c9a227" points="238.38,-204.62 238.38,-198.62"/>
<polyline fill="none" stroke="#c9a227" points="244.38,-198.62 238.38,-198.62"/>
<text xml:space="preserve" text-anchor="start" x="12.88" y="-191.12" font-family="Helvetica,sans-Serif" font-size="10.00">Contraintes d&#39;integrite:</text>
<text xml:space="preserve" text-anchor="start" x="12.88" y="-179.88" font-family="Helvetica,sans-Serif" font-size="10.00">&#45; Utilisateur.email unique</text>
<text xml:space="preserve" text-anchor="start" x="12.88" y="-168.62" font-family="Helvetica,sans-Serif" font-size="10.00">&#45; note dans [1..5] (ou [0..5])</text>
<text xml:space="preserve" text-anchor="start" x="12.88" y="-157.38" font-family="Helvetica,sans-Serif" font-size="10.00">&#45; Evaluation(idEvaluateur,idResume) unique</text>
<text xml:space="preserve" text-anchor="start" x="12.88" y="-146.12" font-family="Helvetica,sans-Serif" font-size="10.00">&#45; PossessionObjet(idUtilisateur,idObjet) unique</text>
<text xml:space="preserve" text-anchor="start" x="12.88" y="-134.88" font-family="Helvetica,sans-Serif" font-size="10.00">&#45; niveau derive de nbPoints</text>
<text xml:space="preserve" text-anchor="start" x="12.88" y="-123.62" font-family="Helvetica,sans-Serif" font-size="10.00">&#45; noteMoyenne derivee des evaluations</text>
<text xml:space="preserve" text-anchor="start" x="12.88" y="-112.38" font-family="Helvetica,sans-Serif" font-size="10.00">&#45; titreActif doit correspondre a un titre possede/actif</text>
<text xml:space="preserve" text-anchor="start" x="12.88" y="-101.12" font-family="Helvetica,sans-Serif" font-size="10.00">&#45; TransactionPoints: exactement une source metier</text>
</g>
<!-- TransactionPoints&#45;&gt;Contraintes -->
<g id="edge15" class="edge">
<title>TransactionPoints&#45;&gt;Contraintes</title>
<path fill="none" stroke="#555555" stroke-dasharray="5,2" d="M1449.64,-347.07C1402.1,-313.55 1327.11,-267.11 1253.5,-248 867.02,-147.68 742.47,-373.41 355.5,-275 326.66,-267.67 267.14,-235.11 215.9,-205.06"/>
</g>
<!-- ObjetCosmetique -->
<g id="node8" class="node">
<title>ObjetCosmetique</title>
<path fill="#e8f0fe" stroke="#4a90e2" d="M413.25,-479.88C413.25,-479.88 544.25,-479.88 544.25,-479.88 550.25,-479.88 556.25,-485.88 556.25,-491.88 556.25,-491.88 556.25,-532.12 556.25,-532.12 556.25,-538.12 550.25,-544.12 544.25,-544.12 544.25,-544.12 413.25,-544.12 413.25,-544.12 407.25,-544.12 401.25,-538.12 401.25,-532.12 401.25,-532.12 401.25,-491.88 401.25,-491.88 401.25,-485.88 407.25,-479.88 413.25,-479.88"/>
<text xml:space="preserve" text-anchor="middle" x="447.12" y="-508.12" font-family="Helvetica,sans-Serif" font-size="10.00">ObjetCosmetique</text>
<polyline fill="none" stroke="#4a90e2" points="493,-479.88 493,-544.12"/>
<text xml:space="preserve" text-anchor="start" x="501" y="-530.62" font-family="Helvetica,sans-Serif" font-size="10.00">PK idObjet</text>
<text xml:space="preserve" text-anchor="start" x="501" y="-519.38" font-family="Helvetica,sans-Serif" font-size="10.00">nom</text>
<text xml:space="preserve" text-anchor="start" x="501" y="-508.12" font-family="Helvetica,sans-Serif" font-size="10.00">description</text>
<text xml:space="preserve" text-anchor="start" x="501" y="-496.88" font-family="Helvetica,sans-Serif" font-size="10.00">prixPoints</text>
<text xml:space="preserve" text-anchor="start" x="501" y="-485.62" font-family="Helvetica,sans-Serif" font-size="10.00">typeObjet</text>
</g>
<!-- ObjetCosmetique&#45;&gt;PossessionObjet -->
<g id="edge12" class="edge">
<title>ObjetCosmetique&#45;&gt;PossessionObjet</title>
<path fill="none" stroke="#555555" d="M556.36,-512C607.91,-512 676.5,-512 732.95,-512"/>
<polygon fill="#555555" stroke="#555555" points="732.75,-514.8 740.75,-512 732.75,-509.2 732.75,-514.8"/>
<text xml:space="preserve" text-anchor="middle" x="666.75" y="-513.2" font-family="Helvetica,sans-Serif" font-size="9.00">estPossedeVia</text>
<text xml:space="preserve" text-anchor="middle" x="725.95" y="-515.93" font-family="Helvetica,sans-Serif" font-size="9.00">(1,1)</text>
<text xml:space="preserve" text-anchor="middle" x="572.68" y="-500.72" font-family="Helvetica,sans-Serif" font-size="9.00">(0,n)</text>
</g>
<!-- PossessionObjet&#45;&gt;TransactionPoints -->
<g id="edge10" class="edge">
<title>PossessionObjet&#45;&gt;TransactionPoints</title>
<path fill="none" stroke="#555555" d="M933.35,-495.48C1034.78,-477.54 1200.55,-447.59 1343,-419 1350.93,-417.41 1359.08,-415.74 1367.29,-414.03"/>
<polygon fill="#555555" stroke="#555555" points="1367.84,-416.78 1375.1,-412.4 1366.7,-411.3 1367.84,-416.78"/>
<text xml:space="preserve" text-anchor="middle" x="1171.5" y="-468.32" font-family="Helvetica,sans-Serif" font-size="9.00">genereDepense</text>
<text xml:space="preserve" text-anchor="middle" x="1360.57" y="-420.4" font-family="Helvetica,sans-Serif" font-size="9.00">(0,1)</text>
<text xml:space="preserve" text-anchor="middle" x="949.72" y="-480.32" font-family="Helvetica,sans-Serif" font-size="9.00">(0,1)</text>
</g>
<!-- PeriodeClassement -->
<g id="node10" class="node">
<title>PeriodeClassement</title>
<path fill="#e8f0fe" stroke="#4a90e2" d="M367.5,-0.5C367.5,-0.5 590,-0.5 590,-0.5 596,-0.5 602,-6.5 602,-12.5 602,-12.5 602,-41.5 602,-41.5 602,-47.5 596,-53.5 590,-53.5 590,-53.5 367.5,-53.5 367.5,-53.5 361.5,-53.5 355.5,-47.5 355.5,-41.5 355.5,-41.5 355.5,-12.5 355.5,-12.5 355.5,-6.5 361.5,-0.5 367.5,-0.5"/>
<text xml:space="preserve" text-anchor="middle" x="406.25" y="-23.12" font-family="Helvetica,sans-Serif" font-size="10.00">PeriodeClassement</text>
<polyline fill="none" stroke="#4a90e2" points="457,-0.5 457,-53.5"/>
<text xml:space="preserve" text-anchor="start" x="465" y="-40" font-family="Helvetica,sans-Serif" font-size="10.00">PK idPeriode</text>
<text xml:space="preserve" text-anchor="start" x="465" y="-28.75" font-family="Helvetica,sans-Serif" font-size="10.00">typePeriode (mensuel/annuel)</text>
<text xml:space="preserve" text-anchor="start" x="465" y="-17.5" font-family="Helvetica,sans-Serif" font-size="10.00">dateDebut</text>
<text xml:space="preserve" text-anchor="start" x="465" y="-6.25" font-family="Helvetica,sans-Serif" font-size="10.00">dateFin</text>
</g>
<!-- PeriodeClassement&#45;&gt;HistoriqueClassement -->
<g id="edge13" class="edge">
<title>PeriodeClassement&#45;&gt;HistoriqueClassement</title>
<path fill="none" stroke="#555555" d="M602.4,-26.9C633.43,-26.94 666.69,-27.04 697.5,-27.25 705.41,-27.3 713.58,-27.37 721.8,-27.45"/>
<polygon fill="#555555" stroke="#555555" points="721.56,-30.25 729.58,-27.53 721.61,-24.65 721.56,-30.25"/>
<text xml:space="preserve" text-anchor="middle" x="666.75" y="-28.45" font-family="Helvetica,sans-Serif" font-size="9.00">contient</text>
<text xml:space="preserve" text-anchor="middle" x="714.71" y="-31.31" font-family="Helvetica,sans-Serif" font-size="9.00">(1,1)</text>
<text xml:space="preserve" text-anchor="middle" x="618.72" y="-15.64" font-family="Helvetica,sans-Serif" font-size="9.00">(1,n)</text>
</g>
</g>
</svg>
